<svg width="200" height="200" viewBox="0 0 200 200" fill="none" xmlns="http://www.w3.org/2000/svg">
  <!-- Background Circle -->
  <circle cx="100" cy="100" r="95" fill="url(#gradient)" stroke="url(#borderGradient)" stroke-width="2"/>
  
  <!-- Medical Cross -->
  <rect x="85" y="60" width="30" height="80" rx="4" fill="white"/>
  <rect x="60" y="85" width="80" height="30" rx="4" fill="white"/>
  
  <!-- Heart Symbol -->
  <path d="M100 140 C100 140, 70 120, 70 100 C70 85, 85 85, 100 100 C115 85, 130 85, 130 100 C130 120, 100 140, 100 140 Z" fill="white"/>
  
  <!-- Digital Connection Lines -->
  <path d="M40 100 L60 100" stroke="white" stroke-width="3" stroke-linecap="round"/>
  <path d="M140 100 L160 100" stroke="white" stroke-width="3" stroke-linecap="round"/>
  <path d="M100 40 L100 60" stroke="white" stroke-width="3" stroke-linecap="round"/>
  <path d="M100 140 L100 160" stroke="white" stroke-width="3" stroke-linecap="round"/>
  
  <!-- Connection Dots -->
  <circle cx="40" cy="100" r="4" fill="white"/>
  <circle cx="160" cy="100" r="4" fill="white"/>
  <circle cx="100" cy="40" r="4" fill="white"/>
  <circle cx="100" cy="160" r="4" fill="white"/>
  
  <!-- Gradient Definitions -->
  <defs>
    <linearGradient id="gradient" x1="0%" y1="0%" x2="100%" y2="100%">
      <stop offset="0%" style="stop-color:#3B82F6;stop-opacity:1" />
      <stop offset="50%" style="stop-color:#1D4ED8;stop-opacity:1" />
      <stop offset="100%" style="stop-color:#1E40AF;stop-opacity:1" />
    </linearGradient>
    <linearGradient id="borderGradient" x1="0%" y1="0%" x2="100%" y2="100%">
      <stop offset="0%" style="stop-color:#60A5FA;stop-opacity:1" />
      <stop offset="100%" style="stop-color:#2563EB;stop-opacity:1" />
    </linearGradient>
  </defs>
</svg>
